<svg xmlns="http://www.w3.org/2000/svg" width="236" height="160" viewBox="0 0 236 160">
  <title>burst-start</title>
  <path d="M36.62,42.4l22,5c-.48-4.44-.88-8.11-1.39-12.87l12.91,9.2C71,37.59,71.75,32.41,72.66,26L85.93,43.29c1.11-4.14,1.93-7.22,3-11.18l11.75,12.77L113,22.68l5.64,20.87L129,33.42l7.95,16,15.71-26.54c1.76,8.48,3.27,15.71,5,24l17-11.45-1.26,15.68,28.37-7.9-14.94,28.6L201.2,74c-3.16,3.27-11.1,12.45-11.1,12.45s14.44,30.38,15.8,33.34c-6-2.68-30.79-13.2-30.79-13.2s-5.59,4.4-8.7,7.11c-2.41-3.43-4.95-7-8-11.36L144.81,122.9l-13.09-14.44-8.93,11c-3.3-4.35-6.36-8.36-10-13.11L94.28,139.67,81.7,106.53,69,118.61c-.59-7.25-1.09-13.46-1.67-20.5l-12.23,5.36c.82-5,1.54-9.42,2.44-14.9-10.83,5.1-31.7,13.33-31.7,13.33s11-16.19,16.83-24.71L32.49,71,44.84,67.4C42.12,59.12,39.49,51.14,36.62,42.4Z"/>
</svg>
