<svg xmlns="http://www.w3.org/2000/svg" width="236" height="160" viewBox="0 0 236 160">
  <title>burst-end</title>
  <path d="M33.29,41.7l23.78,2.82.09-13,12.89,6.79,2.41-18.34L85.77,36l2.92-11.63,11.87,15,12.32-19.74s3.75,14.11,5.74,22.12c3.7-3.1,6.82-5.72,10.38-8.75,2.7,5.5,5.18,10.28,8.2,15.86,6-9.7,17.31-27.55,17.31-27.55L161,45l20.59-15-1.21,15.2,26.28-5.29-10.84,29,17.52,3.2L194,91s16.61,27.18,16.69,30.31c-5-1.28-31.43-4.57-31.43-4.57L176,132l-15.38-18.59-13.37,20.1-13.17-15.25-9.28,9.28-10.63-15.75L94.35,139.92,78.89,111.08,66.08,122.94l-4.86-17-12.43,4.65-1.7-15L20.38,103,35,79,19.93,69.81,40,63Z"/>
</svg>
