<svg xmlns="http://www.w3.org/2000/svg" width="236" height="160" viewBox="0 0 236 160">
	<path d="M36.62,42.4l22,5c-.48-4.44-.88-8.11-1.39-12.87l12.91,9.2C71,37.59,71.75,32.41,72.66,26L85.93,43.29c1.11-4.14,1.93-7.22,3-11.18l11.75,12.77L113,22.68l5.64,20.87L129,33.42l7.95,16,15.71-26.54c1.76,8.48,3.27,15.71,5,24l17-11.45-1.26,15.68,28.37-7.9-14.94,28.6L201.2,74c-3.16,3.27-11.1,12.45-11.1,12.45s14.44,30.38,15.8,33.34c-6-2.68-30.79-13.2-30.79-13.2s-5.59,4.4-8.7,7.11c-2.41-3.43-4.95-7-8-11.36L144.81,122.9l-13.09-14.44-8.93,11c-3.3-4.35-6.36-8.36-10-13.11L94.28,139.67,81.7,106.53,69,118.61c-.59-7.25-1.09-13.46-1.67-20.5l-12.23,5.36c.82-5,1.54-9.42,2.44-14.9-10.83,5.1-31.7,13.33-31.7,13.33s11-16.19,16.83-24.71L32.49,71,44.84,67.4C42.12,59.12,39.49,51.14,36.62,42.4Z" fill-rule="nonzero" fill="red">


<animate dur="1s" repeatCount="indefinite" attributeName="d" values="M36.62,42.4l22,5c-.48-4.44-.88-8.11-1.39-12.87l12.91,9.2C71,37.59,71.75,32.41,72.66,26L85.93,43.29c1.11-4.14,1.93-7.22,3-11.18l11.75,12.77L113,22.68l5.64,20.87L129,33.42l7.95,16,15.71-26.54c1.76,8.48,3.27,15.71,5,24l17-11.45-1.26,15.68,28.37-7.9-14.94,28.6L201.2,74c-3.16,3.27-11.1,12.45-11.1,12.45s14.44,30.38,15.8,33.34c-6-2.68-30.79-13.2-30.79-13.2s-5.59,4.4-8.7,7.11c-2.41-3.43-4.95-7-8-11.36L144.81,122.9l-13.09-14.44-8.93,11c-3.3-4.35-6.36-8.36-10-13.11L94.28,139.67,81.7,106.53,69,118.61c-.59-7.25-1.09-13.46-1.67-20.5l-12.23,5.36c.82-5,1.54-9.42,2.44-14.9-10.83,5.1-31.7,13.33-31.7,13.33s11-16.19,16.83-24.71L32.49,71,44.84,67.4C42.12,59.12,39.49,51.14,36.62,42.4Z;M33.29,41.7l23.78,2.82.09-13,12.89,6.79,2.41-18.34L85.77,36l2.92-11.63,11.87,15,12.32-19.74s3.75,14.11,5.74,22.12c3.7-3.1,6.82-5.72,10.38-8.75,2.7,5.5,5.18,10.28,8.2,15.86,6-9.7,17.31-27.55,17.31-27.55L161,45l20.59-15-1.21,15.2,26.28-5.29-10.84,29,17.52,3.2L194,91s16.61,27.18,16.69,30.31c-5-1.28-31.43-4.57-31.43-4.57L176,132l-15.38-18.59-13.37,20.1-13.17-15.25-9.28,9.28-10.63-15.75L94.35,139.92,78.89,111.08,66.08,122.94l-4.86-17-12.43,4.65-1.7-15L20.38,103,35,79,19.93,69.81,40,63Z;M36.62,42.4l22,5c-.48-4.44-.88-8.11-1.39-12.87l12.91,9.2C71,37.59,71.75,32.41,72.66,26L85.93,43.29c1.11-4.14,1.93-7.22,3-11.18l11.75,12.77L113,22.68l5.64,20.87L129,33.42l7.95,16,15.71-26.54c1.76,8.48,3.27,15.71,5,24l17-11.45-1.26,15.68,28.37-7.9-14.94,28.6L201.2,74c-3.16,3.27-11.1,12.45-11.1,12.45s14.44,30.38,15.8,33.34c-6-2.68-30.79-13.2-30.79-13.2s-5.59,4.4-8.7,7.11c-2.41-3.43-4.95-7-8-11.36L144.81,122.9l-13.09-14.44-8.93,11c-3.3-4.35-6.36-8.36-10-13.11L94.28,139.67,81.7,106.53,69,118.61c-.59-7.25-1.09-13.46-1.67-20.5l-12.23,5.36c.82-5,1.54-9.42,2.44-14.9-10.83,5.1-31.7,13.33-31.7,13.33s11-16.19,16.83-24.71L32.49,71,44.84,67.4C42.12,59.12,39.49,51.14,36.62,42.4Z;" fill="freeze"
      calcMode="spline"
      keySplines="0.4 0 0.2 1; 0.4 0 0.2 1">
  </path>
</svg>