<svg class="flash2" xmlns="http://www.w3.org/2000/svg" viewBox="0 0 601.22 363.3">
    <path id="flash2a" fill="var(--flash--a)" d="M510.23,268.9,466,264.22l16.83,36.15L425.91,274l-2.33,44-31.89-22.2L394,326.45,355.71,309.8l.66,53.5-46.68-54.16L277.8,351.29l-3.32-47.89L240.07,333l-2.43-31.3-63.88,35.62,10.77-40-52.1,36.18,23.93-40.53L86,308.39l34.22-26.74-74.51,7.61,45-36.54-71,9.16,59.1-25.81L0,232.3l88.77-25.81L16.6,202,84,181.7l-69.15,1.58L66.49,167,17.25,141.34l61.16,1-51-34,80.22,15.34L76,85.45l63.86,18.91L116,77.39l56.14,5-20-46.13,64.6,37.19L218.6,36l23.46,14.66L259.93,0,291.6,46.24l20-35.46L334.43,66,361.65,9.43l.74,37.35L413,18.37l.62,36.55L472,17.17,435.18,79.71l83.46-28L467.81,86.69l59.41-7-31.4,21.71L553.33,90l-44,26.18,75.36,4.09-53.61,24.88,70.1,3.1-66.78,18.92L575.52,187l-54.78,1.78L568.09,212l-48.68-2.42,45.83,49.31L498,239.15l12,29.52-.08,0" />
    <text text-anchor="middle" transform="matrix(0.99, -0.11, 0.11, 0.99, 290, 130.4)" style="fill: var(--flash--b); font-size: 25px;">{{site.data.current[page.lang].location-title}}</text>
    <text text-anchor="middle" transform="matrix(0.99, -0.11, 0.11, 0.99, 300, 214.4)" style="fill: var(--flash--b); font-size: var(--flash-2-fontsize, 75px);">{{site.data.current[page.lang].location}}</text>
</svg>
