<svg class="flash3" xmlns="http://www.w3.org/2000/svg" viewBox="0 0 600 360">
   <polygon id="flash3" fill="var(--flash--a)" points="534.82 165.94 498.8 179.82 529.29 196.16 487.74 205.73 517.03 225.91 473.45 230.4 503.83 256.23 457.23 252.53 480.97 280.7 433.86 268.95 446.38 297.69 407.05 284.1 411.37 314.96 374.51 293.83 367.06 321.51 335.48 294.09 319.71 320.51 295.78 292.51 273.16 319.9 257.88 293.02 230.07 314.12 221.96 290.48 183.74 319.02 184.07 295.12 142.69 308.25 155.09 276.04 106.43 289.43 128.75 253.07 88.55 253.66 107.9 228.72 71.2 225.81 93.66 205.19 59.98 196.86 85.89 181.35 55.35 165.99 85.74 157.01 60.63 136.2 96.03 133.73 78.75 108.28 118.8 111.52 110.07 85.25 149.98 90.05 145.93 65.1 179.89 68.55 178.69 43.02 209.44 62.86 224.07 40.47 254.88 54.43 273.11 25.85 293.06 58.72 316.81 34.22 328.05 62.96 360.48 45.27 365.72 71.48 409.49 42.93 409.73 74.82 459.55 57.54 455.12 90.06 495.74 77.31 482.9 106.04 518.96 107.98 498.89 128.72 532.08 136.18 503.44 153.82 534.82 165.94" />
  <text text-anchor="middle" transform="matrix(0.99, -0.11, 0.11, 0.99, 290, 130.4)" style="fill: var(--flash--b); font-size: 25px;">{{site.data.current[page.lang].quality-title}}</text>
  <text text-anchor="middle" transform="matrix(0.99, -0.11, 0.11, 0.99, 300, 214.4)" style="fill: var(--flash--b); font-size: var(--flash-2-fontsize, 75px);">{{site.data.current[page.lang].quality}}</text>
</svg>