<svg xmlns="http://www.w3.org/2000/svg" width="601.22" height="363.3" viewBox="0 0 601.22 363.3">
  <title>flash2-end</title>
  <path d="M483.82,256.52l-27,3,14.18,33-50.92-24.21-8.33,35.53L383,284.42l-1.71,19.41-30.85-14.16-9,24-31.57-21.88-30.51,40.07L276,295l-25.35,24.27L244,293.05l-31.83,24.47-7.35-31.17L179,325.15l4.35-38.45L129,314.25l23.32-30.1L88.27,295.09l36.81-38.87-54.49,8.36,45.18-26.19-83.84-5.06,78.13-27.17-71.35-3.6,57.58-23.91-72.16,4.78L79,164.64l-46.38-19.4,58.51-7.7L61.36,112.19l51.09,3.88L97.6,83.61l37.89,14.87-16.9-25.17,50,7.87L150.74,35.82l66.06,41.5,3.07-28.39L242.6,69.4,262,35.78,292.12,71l22-35.47,24.88,42,24-61.61,3.57,44.53L401.12,24,404,64.36l55.27-46.08-33,65.7,100.77-39.5L464,85.6l73.81-14.76-37,25.75L561,83l-49.32,28.78,65.84,7.13-56.72,25,67.06,4.3-67.21,18.86,37.54,19.63-49.25.44,38.24,20.15-42.75-2.41,19,33-42.31-6,2.59,24.48h0"/>
  <text transform="translate(54.02 156.62) rotate(-6.34)" style="isolation: isolate;font-size: 24.90230941772461px;font-family: ArialMT, Arial">{{site.data.current[page.lang].location-title}}</text>
  <text transform="translate(197.95 225.74) rotate(-6.34)" style="isolation: isolate;font-size: 11.953108787536621px;font-family: ArialMT, Arial">{{site.data.current[page.lang].location}}</text>
</svg>
