<svg class="flash2a" xmlns="http://www.w3.org/2000/svg" viewBox="0 0 601.22 363.3">
    <path fill="var(--flash--a)" d="M510.23,268.9,466,264.22l16.83,36.15L425.91,274l-2.33,44-31.89-22.2L394,326.45,355.71,309.8l.66,53.5-46.68-54.16L277.8,351.29l-3.32-47.89L240.07,333l-2.43-31.3-63.88,35.62,10.77-40-52.1,36.18,23.93-40.53L86,308.39l34.22-26.74-74.51,7.61,45-36.54-71,9.16,59.1-25.81L0,232.3l88.77-25.81L16.6,202,84,181.7l-69.15,1.58L66.49,167,17.25,141.34l61.16,1-51-34,80.22,15.34L76,85.45l63.86,18.91L116,77.39l56.14,5-20-46.13,64.6,37.19L218.6,36l23.46,14.66L259.93,0,291.6,46.24l20-35.46L334.43,66,361.65,9.43l.74,37.35L413,18.37l.62,36.55L472,17.17,435.18,79.71l83.46-28L467.81,86.69l59.41-7-31.4,21.71L553.33,90l-44,26.18,75.36,4.09-53.61,24.88,70.1,3.1-66.78,18.92L575.52,187l-54.78,1.78L568.09,212l-48.68-2.42,45.83,49.31L498,239.15l12,29.52-.08,0">
      <animate dur="2.5s" repeatCount="indefinite" attributeName="d" values="M510.23,268.9,466,264.22l16.83,36.15L425.91,274l-2.33,44-31.89-22.2L394,326.45,355.71,309.8l.66,53.5-46.68-54.16L277.8,351.29l-3.32-47.89L240.07,333l-2.43-31.3-63.88,35.62,10.77-40-52.1,36.18,23.93-40.53L86,308.39l34.22-26.74-74.51,7.61,45-36.54-71,9.16,59.1-25.81L0,232.3l88.77-25.81L16.6,202,84,181.7l-69.15,1.58L66.49,167,17.25,141.34l61.16,1-51-34,80.22,15.34L76,85.45l63.86,18.91L116,77.39l56.14,5-20-46.13,64.6,37.19L218.6,36l23.46,14.66L259.93,0,291.6,46.24l20-35.46L334.43,66,361.65,9.43l.74,37.35L413,18.37l.62,36.55L472,17.17,435.18,79.71l83.46-28L467.81,86.69l59.41-7-31.4,21.71L553.33,90l-44,26.18,75.36,4.09-53.61,24.88,70.1,3.1-66.78,18.92L575.52,187l-54.78,1.78L568.09,212l-48.68-2.42,45.83,49.31L498,239.15l12,29.52-.08,0;M483.82,256.52l-27,3,14.18,33-50.92-24.21-8.33,35.53L383,284.42l-1.71,19.41-30.85-14.16-9,24-31.57-21.88-30.51,40.07L276,295l-25.35,24.27L244,293.05l-31.83,24.47-7.35-31.17L179,325.15l4.35-38.45L129,314.25l23.32-30.1L88.27,295.09l36.81-38.87-54.49,8.36,45.18-26.19-83.84-5.06,78.13-27.17-71.35-3.6,57.58-23.91-72.16,4.78L79,164.64l-46.38-19.4,58.51-7.7L61.36,112.19l51.09,3.88L97.6,83.61l37.89,14.87-16.9-25.17,50,7.87L150.74,35.82l66.06,41.5,3.07-28.39L242.6,69.4,262,35.78,292.12,71l22-35.47,24.88,42,24-61.61,3.57,44.53L401.12,24,404,64.36l55.27-46.08-33,65.7,100.77-39.5L464,85.6l73.81-14.76-37,25.75L561,83l-49.32,28.78,65.84,7.13-56.72,25,67.06,4.3-67.21,18.86,37.54,19.63-49.25.44,38.24,20.15-42.75-2.41,19,33-42.31-6,2.59,24.48h0;M510.23,268.9,466,264.22l16.83,36.15L425.91,274l-2.33,44-31.89-22.2L394,326.45,355.71,309.8l.66,53.5-46.68-54.16L277.8,351.29l-3.32-47.89L240.07,333l-2.43-31.3-63.88,35.62,10.77-40-52.1,36.18,23.93-40.53L86,308.39l34.22-26.74-74.51,7.61,45-36.54-71,9.16,59.1-25.81L0,232.3l88.77-25.81L16.6,202,84,181.7l-69.15,1.58L66.49,167,17.25,141.34l61.16,1-51-34,80.22,15.34L76,85.45l63.86,18.91L116,77.39l56.14,5-20-46.13,64.6,37.19L218.6,36l23.46,14.66L259.93,0,291.6,46.24l20-35.46L334.43,66,361.65,9.43l.74,37.35L413,18.37l.62,36.55L472,17.17,435.18,79.71l83.46-28L467.81,86.69l59.41-7-31.4,21.71L553.33,90l-44,26.18,75.36,4.09-53.61,24.88,70.1,3.1-66.78,18.92L575.52,187l-54.78,1.78L568.09,212l-48.68-2.42,45.83,49.31L498,239.15l12,29.52-.08,0;" fill="freeze" calcMode="spline" keySplines="0.4 0 0.2 1; 0.4 0 0.2 1" fill="freeze"  />
    </path>
    <text text-anchor="middle" transform="matrix(0.99, -0.11, 0.11, 0.99, 290, 130.4)" style="fill: var(--flash--b); font-size: 25px;">{{site.data.translations[page.lang].current-price}}</text>
    <text text-anchor="middle" transform="matrix(0.99, -0.11, 0.11, 0.99, 300, 214.4)" style="fill: var(--flash--b); font-size: var(--flash-2-fontsize, 75px);">${{site.data.current[page.lang].current-price}}</text>
</svg>
