<svg class="flash2" xmlns="http://www.w3.org/2000/svg" viewBox="0 0 600 360">
    <polygon id="flash2" fill="var(--flash--a)" points="539.28 165.48 506.39 179.04 537.05 195.36 497.99 204.68 527.2 224.86 484 229.32 513.51 255.23 465.34 251.69 487.81 280 437.97 268.53 449.07 297.42 407.94 284.55 411.57 315.27 375.92 298.79 368.71 326.89 338.61 306.04 323.05 332.69 299.81 308.45 276.49 332.62 261.01 305.92 232.06 321.59 224.25 296.48 185.89 318.4 187.25 292.48 146.74 303.49 160.36 268.03 111.2 282.23 136.92 243.13 95.81 246.67 118.9 220.96 80.08 222.12 106.56 200.82 70.62 196.52 100.17 180.17 67.79 168.2 100.61 158.15 73.08 138.46 109.24 135.4 88.57 109.34 127.11 110.93 114.78 82.93 152.74 84.64 146.45 57.7 180 58.95 178.75 31.43 209.97 53.07 224.9 30.62 257.93 47.91 276.12 20.94 299.75 40.92 323.47 25.37 338.88 50.68 368.95 30.98 376.25 58.09 413.49 31.94 415.19 66.78 459.85 55.74 455.76 88.98 495.74 77.31 482.94 106.04 519.05 107.97 500.32 128.57 533.67 136.01 507.67 153.38 539.28 165.48" />
    <text text-anchor="middle" transform="matrix(0.99, -0.11, 0.11, 0.99, 290, 130.4)" style="fill: var(--flash--b); font-size: 25px;">{{site.data.current[page.lang].location-title}}</text>
    <text text-anchor="middle" transform="matrix(0.99, -0.11, 0.11, 0.99, 300, 214.4)" style="fill: var(--flash--b); font-size: var(--flash-2-fontsize, 75px);">{{site.data.current[page.lang].location}}</text>
</svg>