<svg class="pastiche-logo" viewBox="0 0 2674.24 2674.24">
    <path d="M410.37,1634.7c5.92,1.29,12-4,18.73-17.17a953.14,953.14,0,0,0,42.6-96.75c33.53-88.75,54.53-180.3,71.06-269.26-22.59,35.85-48,85.71-71.06,137.63C420.84,1503.78,381.64,1628.46,410.37,1634.7Z" style="fill: #191919"/>
      <path d="M2224.2,1079.35c17.82-5.1,34.87-13.42,35.73-24,.45-5.66-5.39-11.52-22-10.28a49.22,49.22,0,0,0-13.7,3.19c-16.3,6.18-32.34,20.36-35.75,36.72C2196,1085.31,2210.33,1083.31,2224.2,1079.35Z" style="fill: #191919"/>
      <path d="M2036.6,944.6c20.48-29.48,15.74-41.47,5.84-42.19-16.62-1.21-37,18.05-56.38,43.65-29.45,38.88-56.62,92.41-64.86,111.12a543.82,543.82,0,0,0,64.86-54C2004.58,985.14,2022.27,965.22,2036.6,944.6Z" style="fill: #191919"/>
    <path d="M1337.12,0C598.65,0,0,598.65,0,1337.12S598.65,2674.24,1337.12,2674.24s1337.12-598.65,1337.12-1337.12S2075.59,0,1337.12,0ZM589.9,1351.82c5-.83,14.11-4.08,18.1-7.16,3-2.32,1-8.18-1-10.31-4.83-5.06-20.34-17.55-1.9-18.22,7.17-.26,14.41,2.69,21.71,2.76,63.55.59,118.66-51.4,154.23-110.71,46-76.67,59.36-165.59,16.11-169a64.61,64.61,0,0,0-16.11.91c-58.72,10.1-142.63,89.51-174.44,125.49-23.6,156.31-71.77,317.15-134.85,466.49-21.46,50.81-44.65,100.29-69.18,147.8-15.45,29.92-32,43.08-45.7,43.07-18.55,0-31.88-24.18-30.18-63.63,6.51-150.54,65.52-319.06,145.06-460.11a1137,1137,0,0,1,85.6-130.74c2.7-16.13,12.17-48.47-13.82-50.3-25.15-1.77-50.17,19.28-71.78,43.64-15,16.94-28.39,35.47-39,49.07-4.43,5.67-14.29-.11-1.21-20.35q3.94-6.12,8.24-12c2.09-2.86,4.27-6.76.6-9.34-5.36-3.76-18.68,0-6.57-15.21,10.89-13.7,23.69-29.13,37.95-44.06,33-34.6,74-66.49,117.57-67.9,32-1,26.2,36.24,24.73,57.17,41.33-49.39,100.37-107.4,167-138.69,30-14.11,61.61-22.79,93.8-22.79,44.52,0,63.61,32.7,63.56,80.29-.07,88.27-66,227.67-157.36,304.33-39.84,33.42-84.52,54.94-130.73,55.07-23.91.06-43.43-4.29-62.88-12.91C579.28,1360.86,584,1352.81,589.9,1351.82Zm616.24-43.14c-39.44,20-43.17,65.86-40.15,113.59,2.82,44.6-.39,97.16-28.92,125.82a95.32,95.32,0,0,1-41.54,24.34,74.5,74.5,0,0,1-19.72,2.9c-33.38,0-56.65-31.87-57.33-69.42-.72-40.1,24.12-72.53,48.3-101.58,8.39-10.09,20.73-8.7,10.6,7-13,20.11,7.51,12.55,3.64,21.42l.2,0-.51.68a22.42,22.42,0,0,1-2.39,3.53l-2.65,3.34c-9.72,13.75-17.42,28.27-17.22,44.33.18,14.61,9.86,21.94,23.46,21.93a27.78,27.78,0,0,0,13.62-3.42c11-6.12,17-19.58,19-33.39,7.15-50.35,2.51-107.47,38.06-148.47-16.72,3.37-36.07,15.75-57,33-74.44,61.31-169.19,184.27-238.75,184.39-22.67,0-27.76-20.24-21-38.51A259.27,259.27,0,0,1,781,1550.38c-31.54,21.55-68.71,36.67-106.38,37.52-34.71.78-51.44-27.15-51-46.83,1.51-62.1,90.25-117,157.35-134.27,5-1.29,9.85-2.37,14.54-3.23a210.21,210.21,0,0,1,50-3.17c6.51.39,9.29,8.87-12.14,12.69q-6.48,1.15-13,1.94c-3.19.38-7.1,1.34-6.44,5.38,1,5.9,12.17,11.22-5.41,12.65a100.67,100.67,0,0,0-19.06,3.32c-2.87.79-5.68,1.61-8.43,2.44-40.17,12.24-66.49,29.08-83.82,60.12-14.06,25.19,7.55,32.34,39.72,15.19a353.83,353.83,0,0,0,44.1-28c40.43-29.92,74.7-67.15,108-105.22,13.77-15.75,10.84-1.91,16.06,2.89,3.58,3.27,7.08,0,9.53-2.89q5-6,10.42-11.65c17.76-18.76,24.94-10.11,20.5-3.77l-69.3,100.41c-10.2,14.86,8.08,27.39,33.43,8.22,57.77-43.7,117.23-116.72,185.92-161.95,36.25-23.88,75.07-40,117.58-40,25.25,0,35.37,11.74,35.47,23.77C1248.7,1309.62,1229.77,1326.08,1206.14,1308.68Zm1139.13-189.29c-33.24,28.91-74.34,54.74-121.07,64.22a190.14,190.14,0,0,1-40.55,3.82c-27.52-.41-47.39-12.42-55-37.6-36.89,38.58-89.29,77.09-134.2,77.91a65.75,65.75,0,0,1-8.36-.38c-42.07-4.67-43.8-50.91-64.63-50.45-24.84.55-52.51,25.61-68.14,46.29-10,23.42-19.53,47-27.19,73.18-2.4,8.21-6,13.66-12,3.28-5.61-9.62-8-15.15-16.77-2.91-2.41,3.37-4.4,7-6.56,10.57-11.76,19.23-22.26,12.41-18.23.36,9.92-29.65,21-59.58,32.91-89.17-49.54,58-134.62,118.89-184,112.38-19.09-2.52-31-14.58-34.62-32a371.32,371.32,0,0,1-34,33.21c-28.74,24.57-60.12,42.59-85.36,40.82-18.49-1.31-29.41-9.86-34.45-23.28-41.54,44.45-109.33,77-142.73,62.92-54.27-22.88-20.82-146.3,44.26-254a2402.78,2402.78,0,0,0-239,92.3q-71.33,31.92-140.45,67.9c-30.38,15.79,2.35-21.16,13.11-29.54,3.58-2.78,7.63-6.81,4-11.26-5.26-6.52-25.52-10.87-3.83-23A1373.82,1373.82,0,0,1,1095.53,1193c88.61-38,180.91-68.32,272.57-96,26.59-41.86,51.8-81.14,80-120.57,17.06-23.88,22.36-5.62,29.69,1.1,5,4.59,9.92,0,13.37-4q7.05-8.37,14.6-16.33c24.9-26.31,35.06-14.12,28.75-5.29-29.35,41.08-57.42,82.39-85.57,124.06q51.72-14.13,103.92-26.54c89.35-21.32,179.56-39.16,270.07-54.53,7.41-1.26,11.51,9.31-12.75,15.73-4.54,1.2-23.3,5.09-21.66,11.7s16.26,9.53-3.71,13.3c-77.73,14.71-155.31,34.15-232,56.19-47.81,13.74-95.25,28.5-142.14,43.75a939.56,939.56,0,0,0-77,159.11c-25.47,68.49,21.46,63.66,69.34,23,34.63-29.41,62.5-65.38,87.45-103,6.61-10,8.66-8.59,13.1-3,6.52,8.23,13.22,5.83,21.6,0,4.25-3,32.07-17.79,23.44-4.37l-48.53,78.92c-13.47,23.62-8.59,31.26,3,31.31,10.55,0,29.87-10.93,49.76-26.56a305.19,305.19,0,0,0,39.3-37c20.4-53.74,80.11-107.18,139.51-107.18,14.83,0,29.52,8,36.67,20.86,8.5,15.24,10,37.11-9.9,13-5.11-6.2-10.48-2.27-8.91,6.33,2.49,13.61-4.42,28.88-14.47,7.84-3.14-6.56-7.17-14.26-17.14-13.83-23.7,1-53.72,38.22-62.57,57.78-10.77,23.8,2.14,43.12,22.25,36.36,38.76-13,108.93-69.92,151.33-113.85,33.91-79.13,73.72-184.51,131.62-249.84a251.21,251.21,0,0,1,25.55-25.09c27.13-23,54.12-35,73.11-35.07,52.45-.1,48.4,35,38,65-18,52.06-62.84,100.42-111.11,141.66-31.44,26.85-64.33,50.69-92.25,70.57l-15.09,33.7c17.94-15.69,41.65-30.78,66.59-31.5,17.88-.51,29.64,9.69,40.75,20.21,12.52,11.86,24.21,24.11,42.9,21.84,29.14-3.56,62.83-23.42,97.74-54.47,7.62-44.53,53.26-91.59,97.5-102.06a79.74,79.74,0,0,1,11.06-1.84c43.15-4,60,17,59.55,36.05-.71,27.22-37.54,47.85-70.61,59.4-15.64,5.46-30.43,8.89-40.17,10,2.92,17.62,15.69,24.26,32,24.59,2.75.06,5.49,0,8.21-.16,28.4-1.66,55-14.7,77.16-32.19,19.58-15.45.69,20.86,25.95,4.82C2347.66,1104,2350.93,1114.47,2345.27,1119.39Zm-768.12,27.19c-3.08,7.26-13.44,23.24-24.33,32.58-5.74,4.91-11.62,8-16.67,7-13.26-2.69-17-32.91-6.84-54.17,5.68-12,16.1-25.51,23.51-23a5.55,5.55,0,0,1,.52.2c5.55,2.48,2.83,12.05,8.29,14.37,5.06,2.14,11.25-.46,16.19,1.14S1584.57,1129.07,1577.15,1146.58Z" style="fill: #191919"/>
</svg>
