<svg xmlns="http://www.w3.org/2000/svg" width="777" height="452" viewBox="0 0 777 452">
  <title>loq-logo</title>
  <g>
    <path d="M671.21,147.14a30.58,30.58,0,0,1,54.1-20.74c10.75,12.82,9.5,34.87-2.61,46.32-12.92,12.2-34.18,10.32-45.05-3.91C672.88,162.57,671,155.52,671.21,147.14Zm43,7.36c-.79-5.91-1.28-11.89-2.45-17.72s-3.28-11.69-7.3-16.48c-4.23-5.06-8.85-4.77-11.27,1.31a55.61,55.61,0,0,0-3.32,14.45c-.79,7.38.12,14.78,1.62,22.05,1.22,5.9,3,11.61,6.67,16.52,1.85,2.5,4,5.13,7.48,4.57,3.23-.53,4.43-3.52,5.52-6.24C713.54,167.05,713.81,160.82,714.24,154.5Z"/>
    <path d="M776.55,91.25l-7.43,5c-6.68,4.5-8,11.27-7.72,18.64,0,.48,1.13,1.27,1.79,1.32,2.23.17,4.49,0,6.73.09a14.33,14.33,0,0,1,2.47.53l0,1.08H768c-6.65,0-6.65,0-6.65,6.54,0,12.82,0,25.65,0,38.47a74.78,74.78,0,0,0,.38,7.48c.4,3.9,2.53,6.77,5.77,9.06H737.22c.15-.33.19-.63.35-.73,4.6-2.84,5.68-7.29,5.68-12.26,0-15.32,0-30.64.08-46,0-2-.57-2.75-2.54-2.62-1.53.11-3.07,0-4.61,0l-.2-1a11.08,11.08,0,0,1,2.32-.62c4.56-.18,4.65-.14,5.22-4.74,1.37-10.92,8.77-15.67,18-18.24a104.52,104.52,0,0,1,11.75-2A24.46,24.46,0,0,1,776.55,91.25Z"/>
  </g>
  <g>
    <path d="M228.82,0h76.05a20.66,20.66,0,0,1-2.61,2.75c-10.41,6.92-15.43,16.67-15.44,29.08q0,68.75-.07,137.47c0,3.26.93,4.41,4.26,4.3a189.11,189.11,0,0,1,19.49,0c23.84,1.67,40.13-9.5,50.91-29.8,5.67-10.68,10.68-21.71,16-32.7,0,2.45.17,5.1,0,7.72-1.38,18.24-2.94,36.47-4.18,54.72-.29,4.23-2.86,3.66-5.51,3.66H227.87c2-1.55,3.14-2.5,4.35-3.31,9.52-6.41,14.86-15.54,14.95-26.8q.48-58.49,0-117c-.1-11.47-5.58-20.7-15.34-27.11-.83-.54-1.66-1.09-2.45-1.7C229.18,1.11,229.14.73,228.82,0Z"/>
    <path d="M617.36,177.39c-5.94-14.45-11.33-27.48-16.65-40.54s-10.52-26.09-15.77-39.14h-1.6l-30.22,79.66c-19.24-42.42-33-85.8-54.59-126.25h57.52c-2.07,1.33-3.1,2-4.09,2.63-5.94,4.08-8,8.52-5.63,15.42,5.73,16.47,12,32.76,18.07,49.12,1,2.63,2.14,5.2,3.61,8.77a31.55,31.55,0,0,0,2.46-4.2c3.55-9.5,7.17-19,10.38-28.59a10.91,10.91,0,0,0-.31-7.11c-5.1-12-10.54-23.9-15.93-36h56.63c-1.93,1.18-2.82,1.71-3.7,2.27-6.25,3.92-8.77,9.21-6.33,16.19,6.53,18.68,13.53,37.19,20.36,55.75.09.24.48.37,1.09.8a12.09,12.09,0,0,0,1.83-2.65c5.81-15.93,11.78-31.81,17.24-47.87,4.13-12.12,2.08-17.13-9.44-24.47h24C647.83,92,634.72,134.67,617.36,177.39Z"/>
    <path d="M394.58,79.75c6.14-8.25,11.87-16.86,18.65-24.55,2.19-2.47,7.07-3,10.85-3.56a212.27,212.27,0,0,1,23.3-2.45c6.77-.25,13.73-.26,20.33,1,13,2.55,20.19,11.42,20.93,25.59.62,12,.28,24,.34,36,.06,12.33.16,24.65.13,37,0,11,1.28,21.44,12.1,28.12H454.14c-.19-4.19-.39-8.56-.64-14.06-2.78,1.79-4.81,3-6.77,4.35-7.15,4.89-14.33,9.61-23.32,10.58-17.94,1.93-33.13-8.47-34.85-27.21-1.19-12.93,4.1-23.18,14.63-30.36,11-7.5,22.54-14.16,33.61-21.55,6.78-4.53,13.31-9.58,16.12-17.81a24.75,24.75,0,0,0-2.66-22.45c-3.58-5.51-11.56-7.53-18.9-3.46-8.82,4.88-17,11-25.26,16.8-3.77,2.64-7.15,5.85-10.71,8.8Zm58.94,12.38-1.46-.85L435.86,105c-13,11-15.43,25.67-13,41.26.84,5.37,4.25,10.85,7.82,15.17,5.52,6.67,15.11,5.72,19.32-1.85a32,32,0,0,0,3.69-14.19c.44-16.14.18-32.29.15-48.44C453.85,95.34,453.63,93.73,453.52,92.13Z"/>
  </g>
  <g>
    <path d="M169.85,448.71c-23.52,3.94-46.86,5.68-69.78-1.56-18.46-5.82-28.28-19.15-29.21-38.6-.15-3.09-1.19-4.32-4-5.14C34,394.07,11.13,373.77,3.15,340.28-6.2,301,3.41,261.93,38.06,237.93c16.69-11.56,35.46-17.18,55.7-15,24.29,2.64,44.77,13.37,60.46,32.43,16,19.45,21,42.06,19.24,66.76-.89,12.6-3.17,24.67-8.94,36-7.53,14.8-18.82,26.08-32.63,35-3.91,2.53-8,4.78-11.86,7.39-6.76,4.6-8.44,10.35-5,17.79,4.58,10,13.22,15.91,22.85,19.84C148.07,442.34,158.85,445.15,169.85,448.71ZM130.56,330.4c-.63-6.78-1.32-13.55-1.9-20.33-1.51-17.8-6.7-34.56-14.54-50.49-5.56-11.31-12.67-21.57-23.35-28.75-10.07-6.77-19.43-6-27.91,2.68a49.56,49.56,0,0,0-8.37,11.68C45.27,263,43.22,282.33,43.72,301.91c.49,19.2,3.68,38.06,10.91,56,6.28,15.61,14,30.27,28.43,40.1,9.66,6.59,18.29,6.32,26.69-1.75a52.35,52.35,0,0,0,10.5-14.36C128.25,365.75,130.19,348.25,130.56,330.4Z"/>
    <path d="M183.83,277.51a27.16,27.16,0,0,1,4.09-.84c13.83-.06,27.66,0,41.49-.15,3.7,0,3.32,2.26,3.32,4.66q0,45,0,90c0,1.67,0,3.34,0,5,.07,6.27,1.05,12.67,7.63,14.95,7.35,2.55,14.47.08,20.69-4.38.85-.61,1.29-2.32,1.29-3.52q-.21-43-.57-86c-.06-7.7-2.63-14.32-9.9-19.92a50.55,50.55,0,0,1,5.47-.75c12.16-.05,24.33.12,36.49-.11,4-.07,4.64,1.53,4.63,5q-.16,43,0,86c0,13.1-1.5,26.79,12.09,35.7-15.06,0-30.13.06-45.2-.13-1,0-2.57-1.82-2.75-3-.42-2.58-.14-5.28-.14-8.84a58.76,58.76,0,0,0-5.77,2.24c-10.25,5.32-20.86,9.49-32.44,10.82-11.24,1.28-23-2-25.76-12a49.85,49.85,0,0,1-1.64-12.76c-.16-22.33-.07-44.66-.08-67,0-2.67,0-5.33-.05-8C196.58,294,195.67,283.77,183.83,277.51Z"/>
    <path d="M428.53,403.08H382.26c-.14,0-.28-.17-1.28-.8V388.58c-5.4,3.56-9.61,6.41-13.91,9.14-9.9,6.29-20.4,8.18-31.79,4.46-16.19-5.28-22.81-23.69-18.2-38.27A33,33,0,0,1,330.7,346c10.94-7.28,22.28-14,33.22-21.25,6.95-4.62,13.67-9.78,16.41-18.2,2.55-7.85,1.75-15.51-3-22.41-3.71-5.42-11.6-7.23-19-3.09-8.8,4.93-16.94,11.06-25.21,16.88-3.71,2.61-7.06,5.73-11.33,7.88,6.31-8.47,12.22-17.29,19.16-25.2,2-2.34,6.95-2.5,10.63-3a221.52,221.52,0,0,1,22.81-2.38c6.93-.23,14.09-.33,20.81,1.1,14,3,21,13,21.07,29.25.14,21.5,0,43,.09,64.49a142.57,142.57,0,0,0,1.07,16.39,18.88,18.88,0,0,0,9.64,14.42,4.37,4.37,0,0,1,1.12,1A4.42,4.42,0,0,1,428.53,403.08Zm-48.1-86.69c-5.86,4.91-10.5,8.88-15.23,12.75-8.15,6.66-13.87,14.82-15.2,25.47-1.48,11.8-1.48,23.38,7.61,32.75,6.25,6.46,15.42,5.84,19.81-1.95a29.51,29.51,0,0,0,3.6-13.25c.42-16.64.19-33.3.15-50A57.08,57.08,0,0,0,380.43,316.39Z"/>
    <path d="M435.42,225.91c.49,0,1-.11,1.47-.11h45.74c.25,2.76.69,5.3.69,7.83q.06,66.24,0,132.47c0,2.5,0,5,.05,7.5.2,11.18.39,22.38,12,29.27H435c.31-.63.4-1.24.74-1.42,9.4-5.3,11.51-14.32,11.55-23.92q.26-63,0-126c0-10.18-2.65-19.4-12.91-24.78Z"/>
    <path d="M638.7,277.12h58.16c-2.75,1.9-4.82,3-6.48,4.55-3.3,3.09-5.57,6.87-4,11.55,4.51,13,9.17,26,13.89,38.93,2.22,6.09,4.68,12.09,7.08,18.11.52,1.32,1.25,2.56,2.55,5.17,2.4-6.31,4.35-11.31,6.22-16.34,4.73-12.79,9.63-25.52,14.07-38.41,4-11.62,2-16.66-9.21-23.52h25.19C735,295.05,729.37,315,721.67,333.94c-11.25,27.75-21.93,55.72-33,83.53-4,10.08-9,19.65-17.5,26.95-7.2,6.21-15.81,7.38-24.79,6.82-1.1-.07-2.87-2.31-3-3.65-1-12.91-1.61-25.85-2.42-40,2,1.67,3.36,2.72,4.66,3.81,13.11,11,37,10.33,45.49-8.41a7.73,7.73,0,0,0,.35-5.54q-22.69-54-45.73-107.93C644,285.46,641.35,281.75,638.7,277.12Z"/>
    <path d="M563.72,277.94c23.93-5.51,37.39-23,50.24-41.81v26.21c0,14.21,0,14.21,14,14.21a41.81,41.81,0,0,1,5.49.09,11,11,0,0,1,3.06,1.42c-.1.47-.21.94-.31,1.41l-5,.35c-5.41.37-12.84-1.25-15.67,1.65S614,291.77,614,297.21c-.11,19.82-.18,39.65,0,59.48a113.83,113.83,0,0,0,1.7,19.87c1.53,8.07,6.84,13.95,13.63,18.31,4.36,2.8,9,5.12,13.44,8-14.49.28-28.94,1.17-43-2.83-14.77-4.2-20.91-13.26-21.07-32-.23-25.66-.09-51.32-.1-77,0-11,0-11-11.09-11.27-1,0-1.92-.19-2.89-.28Z"/>
    <path d="M501.09,402.85c.29-.61.38-1.22.71-1.41,9.4-5.3,11.46-14.31,11.54-23.92q.3-37.72,0-75.47c-.08-9.6-2.42-18.53-12.85-24.73,3.09-.38,4.64-.74,6.18-.74,12.5-.05,25,.13,37.49-.11,4.38-.09,5.29,1.74,5.28,5.64-.11,27.82-.06,55.64-.06,83.46,0,2.84,0,5.67.06,8.5.16,11.06.75,21.95,12,28.78Z"/>
    <path d="M530.31,262.63c-11.89,0-20-7.84-20-19.31,0-10.94,8.42-18.87,20-18.87,11.8,0,20,8,20,19.4C550.26,254.88,542,262.63,530.31,262.63Z"/>
  </g>
  <g>
    <path d="M112.12,178.32H82.28c.15-.34.2-.73.4-.84,4.35-2.4,5.6-6.51,5.64-11,.16-14.41.13-28.82.16-43.24,0-6.16.08-12.33,0-18.49-.06-2.64-.07-5.47-1-7.86-1-2.57-3-4.72-4.59-7h23.2c.09,1.07.28,2.2.28,3.32,0,8.25,0,16.5,0,24.75,0,3.47.12,3.53,3.24,1.83,6.53-3.57,13.36-5.89,21-5.2,4.67.42,7.73,3.16,8.36,7.77a35.41,35.41,0,0,1,.31,4.72c0,11.25,0,22.5,0,33.74,0,2.83.19,5.66.43,8.48.33,3.88,2.63,6.53,6.45,8.89H115.69c1.1-1.16,2.43-2,2.9-3.17,1.09-2.73,2.42-5.62,2.48-8.48.28-12.82.19-25.65.13-38.48,0-6.31-3.78-8.87-9.78-6.88A12.28,12.28,0,0,0,108,122.7a3.78,3.78,0,0,0-1.58,2.47c0,13.58,0,27.16.1,40.74C106.55,170.6,107.35,175,112.12,178.32Z"/>
    <path d="M58.07,178.32H19.76c1-.78,1.55-1.28,2.16-1.7,4.56-3.13,7.22-7.47,7.25-13,.12-23.23.07-46.47.06-69.71,0-1,.27-2.2-1.43-2.35-8.65-.76-16.32.85-21.39,8.72C4.7,103,3.2,105.75,1.65,108.49A17,17,0,0,1-.24,111.6c0-1.4-.1-2.81,0-4.2C.21,102.18.82,97,1.13,91.76c.14-2.23,1.43-2,2.88-2H76.73q1,11,2.06,22.06l-.4.11c-1.19-2.32-2.3-4.69-3.58-7-2.41-4.31-5.23-8.26-9.52-11-4.71-3-9.92-2.27-15-2.29-.38,0-.9.77-1.09,1.28a5.23,5.23,0,0,0-.05,1.73c0,22.07.11,44.14-.06,66.21-.05,7,2.1,12.52,8.11,16.33A6.1,6.1,0,0,1,58.07,178.32Z"/>
    <path d="M200.67,157.75c-3.19,9.34-7.94,17.49-17.89,20.62-11.59,3.65-23.84-2-30-13.05-6-10.74-6.21-31.35,4.09-42,6.81-7,15-10.55,24.75-8.93,10.63,1.78,16.47,9,19.32,18.92a30.25,30.25,0,0,1,1,6.12c0,.63-.78,1.51-1.43,1.94-.46.31-1.29.08-2,.08h-31c-3,0-3.06.13-2.76,3.16a26.16,26.16,0,0,0,4.74,13,17.88,17.88,0,0,0,24.37,4.73C196.23,160.89,198.43,159.28,200.67,157.75ZM175,139.69c2.92,0,5.83,0,8.75,0,1.36,0,2-.49,1.92-1.91-.43-6.44-1.39-12.75-4.89-18.34-3.12-5-7.59-5.16-11-.45-4.18,5.72-5,12.4-5,19.22,0,.48,1.1,1.36,1.72,1.39C169.29,139.77,172.12,139.69,175,139.69Z"/>
  </g>
</svg>
